<svg width="37" height="37" viewBox="0 0 37 37" fill="none" xmlns="http://www.w3.org/2000/svg">
<path d="M5.78125 20.2344C6.73912 20.2344 7.51562 19.4579 7.51562 18.5C7.51562 17.5421 6.73912 16.7656 5.78125 16.7656C4.82338 16.7656 4.04688 17.5421 4.04688 18.5C4.04688 19.4579 4.82338 20.2344 5.78125 20.2344Z" stroke="black" stroke-width="4.96875" stroke-linecap="round" stroke-linejoin="round"/>
<path d="M18.5 20.2344C19.4579 20.2344 20.2344 19.4579 20.2344 18.5C20.2344 17.5421 19.4579 16.7656 18.5 16.7656C17.5421 16.7656 16.7656 17.5421 16.7656 18.5C16.7656 19.4579 17.5421 20.2344 18.5 20.2344Z" stroke="black" stroke-width="4.96875" stroke-linecap="round" stroke-linejoin="round"/>
<path d="M31.2188 20.2344C32.1766 20.2344 32.9531 19.4579 32.9531 18.5C32.9531 17.5421 32.1766 16.7656 31.2188 16.7656C30.2609 16.7656 29.4844 17.5421 29.4844 18.5C29.4844 19.4579 30.2609 20.2344 31.2188 20.2344Z" stroke="black" stroke-width="4.96875" stroke-linecap="round" stroke-linejoin="round"/>
</svg>
